<svg xmlns="http://www.w3.org/2000/svg" viewBox="0 0 512 512" role="img" aria-label="UDESC">
  <!-- Ícone instalado no celular (maskable): logo oficial branco da UDESC
       (vertical_negativo) centralizado sobre azulejo verde-escuro arredondado. -->
  <rect width="512" height="512" rx="104" fill="#054B28"/>
  <g transform="translate(76 115) scale(2.5438)" fill="#fff">
    <path d="M60.95,105.64c0,3.35,3.08,5.18,6.75,5.18h17.34v-4.11h-13.77c-.62,0-1.54-.17-1.54-1.27v-4.87h13.13v-3.03h-13.13v-5.92h13.61c1.61-.21,1.7-1.06,1.7-3.11v-.59h-24.08v17.72Z"/>
    <path d="M48.08,87.92h-17.53v22.9h17.53c6.79,0,9.73-1.88,9.86-8.26,0-.13,0-5.91,0-6.01-.1-6.3-3.05-8.63-9.86-8.63ZM49.86,103.53c0,3.18-1.41,3.18-4.66,3.18h-6.7v-15.09h6.7c3.35,0,4.68.08,4.68,3.46,0,.3-.01,8.02-.01,8.45Z"/>
    <path d="M19.14,91.05v15.5h-6.41c-2.89,0-4.74-.94-4.74-4.32v-14.35H2.71c-2.6,0-2.71.75-2.71,3.17v11.18c0,6.85,2.73,8.63,9.03,8.63.03,0,18.51,0,18.51,0v-22.98h-5.69c-2.6,0-2.71.75-2.71,3.17Z"/>
    <path d="M128.65,106.71c-3.16,0-3.56-1.76-3.59-4.45v-6.32c0-2.72.55-4.47,3.73-4.47h11.49c1.1-.4,1.06-1.42,1.06-3.56h-16.6c-6.46,0-8.6,3.73-8.6,9.67v3.62c.03,5.92,2.09,9.61,8.51,9.61h14.15c2.41,0,2.68-.64,2.71-2.65v-1.46h-12.87Z"/>
    <path d="M105.13,96.73h-6.6c-1.67,0-2.39-1.02-2.39-2.52s.72-2.59,2.39-2.59h12.15c1.17-.16,1.52-.67,1.63-1.74v-1.96h-14.94c-5.7,0-9.34,1.67-9.34,6.7,0,4.75,2.27,6.55,7.62,6.55h0c.18.01,5.52.01,7.1.01s2.28,1.13,2.28,2.52c0,1.5-.71,3-3.1,3h-13.49c0,3.62,1.58,4.11,3.15,4.11h13.17c5.7,0,8.36-1.76,8.36-7.11s-2.23-6.98-8.01-6.98Z"/>
    <path d="M91.79,55.09c0-6.2-5.02-11.22-11.22-11.22s-11.23,5.03-11.23,11.22,5.03,11.23,11.23,11.23,11.22-5.02,11.22-11.23Z"/>
    <path d="M79.31,36.25s-12.27,0-27.54,0c-6.84,0-16.72-.16-16.72,11.51v10.83c0,10.26,9.89,9.97,16.72,9.97h15.33v-14.44c0-8.44,6.68-12.49,13.46-12.49,8.22,0,13.46,5.2,13.46,12.63v14.29h12.16v-20.8c0-11.51-9.62-11.51-16.52-11.51-.1,0-6.55,0-6.65,0h-3.71Z"/>
    <path d="M61.93,32.3s12.27,0,27.54,0c6.84,0,16.72.16,16.72-11.51v-10.83C106.19-.29,96.31,0,89.47,0h-15.33v14.44c0,8.43-6.68,12.49-13.46,12.49-8.22,0-13.46-5.2-13.46-12.63V0h-12.16v20.8c0,11.51,9.62,11.51,16.52,11.51.1,0,6.55,0,6.65,0h3.71Z"/>
    <path d="M49.45,13.46c0,6.2,5.03,11.23,11.23,11.23s11.22-5.03,11.22-11.23-5.02-11.22-11.22-11.22-11.23,5.02-11.23,11.22Z"/>
  </g>
</svg>
